<?xml version="1.0" encoding="utf-8"?>
<!-- Generator: Adobe Illustrator 26.3.1, SVG Export Plug-In . SVG Version: 6.00 Build 0)  -->
<svg version="1.1" id="Layer_1" xmlns="http://www.w3.org/2000/svg" xmlns:xlink="http://www.w3.org/1999/xlink" x="0px" y="0px"
	 viewBox="0 0 672 296" style="enable-background:new 0 0 672 296;" xml:space="preserve">
<style type="text/css">
	.st0{fill:#FFFFFF;}
	.st1{fill:#226DB4;}
	.st2{fill:#E42527;}
	.st3{fill:#EB3A38;}
</style>
<g>
	<g>
		<path d="M469.97,224.05c-1.78,5.44-4.34,10.23-7.69,14.36c-3.35,4.13-7.22,7.6-11.61,10.4c-4.39,2.8-9.21,4.9-14.44,6.32
			c-5.23,1.41-10.62,2.12-16.17,2.12c-9.26,0-17.46-1.41-24.6-4.24c-7.14-2.83-13.14-6.83-18.01-12.01
			c-4.87-5.18-8.55-11.44-11.06-18.79c-2.51-7.35-3.77-15.52-3.77-24.52c0-8.26,1.37-15.96,4.12-23.07
			c2.75-7.11,6.6-13.3,11.57-18.56c4.97-5.26,10.95-9.39,17.93-12.4c6.98-3.01,14.71-4.51,23.19-4.51c5.44,0,10.66,0.66,15.66,1.96
			c5,1.31,9.64,3.26,13.93,5.85c4.29,2.59,8.12,5.82,11.5,9.69c3.38,3.87,6.13,8.37,8.28,13.5l-18.36,7.77
			c-1.2-3.14-2.8-6.03-4.79-8.67c-1.99-2.64-4.28-4.91-6.87-6.79c-2.59-1.88-5.44-3.35-8.55-4.39c-3.11-1.05-6.4-1.57-9.85-1.57
			c-6.07,0-11.27,1.19-15.62,3.57c-4.34,2.38-7.9,5.53-10.67,9.46c-2.77,3.92-4.81,8.41-6.12,13.46c-1.31,5.05-1.96,10.21-1.96,15.5
			c0,5.55,0.69,10.79,2.08,15.73c1.39,4.94,3.52,9.29,6.4,13.03c2.88,3.74,6.51,6.71,10.91,8.91c4.39,2.2,9.57,3.29,15.54,3.29
			c3.77,0,7.28-0.55,10.55-1.65c3.27-1.1,6.22-2.65,8.87-4.67c2.64-2.01,4.96-4.43,6.95-7.26c1.99-2.83,3.63-5.96,4.94-9.42
			L469.97,224.05z"/>
		<path d="M485.43,137.58l20.09-8.71v126.81h-20.09V137.58z"/>
		<path d="M526.86,147.47c0-1.67,0.31-3.2,0.94-4.59c0.63-1.39,1.49-2.59,2.59-3.61c1.1-1.02,2.37-1.8,3.81-2.35
			c1.44-0.55,2.97-0.82,4.59-0.82c1.62,0,3.14,0.29,4.55,0.86c1.41,0.58,2.65,1.37,3.73,2.39c1.07,1.02,1.91,2.22,2.51,3.61
			c0.6,1.39,0.9,2.92,0.9,4.59c0,1.62-0.3,3.14-0.9,4.55s-1.41,2.62-2.43,3.61c-1.02,1-2.24,1.78-3.65,2.35
			c-1.41,0.58-2.96,0.86-4.63,0.86c-1.62,0-3.17-0.29-4.63-0.86c-1.46-0.58-2.75-1.37-3.85-2.39c-1.1-1.02-1.96-2.24-2.59-3.65
			C527.18,150.6,526.86,149.09,526.86,147.47z M528.67,171.79h20.09v83.89h-20.09V171.79z"/>
		<path d="M632.88,241.87c-1.41,2.41-3.22,4.55-5.41,6.44c-2.2,1.88-4.6,3.49-7.22,4.83c-2.62,1.33-5.34,2.35-8.16,3.06
			c-2.83,0.71-5.6,1.06-8.32,1.06c-6.43,0-12.02-1.17-16.75-3.49c-4.74-2.33-8.66-5.47-11.77-9.42c-3.11-3.95-5.43-8.57-6.94-13.85
			c-1.52-5.28-2.28-10.88-2.28-16.79c0-5.75,0.84-11.29,2.51-16.6c1.67-5.31,4.15-9.98,7.42-14.01c3.27-4.03,7.28-7.25,12.05-9.65
			c4.76-2.41,10.23-3.61,16.4-3.61c5.86,0,11.33,1.19,16.4,3.57c5.07,2.38,9.1,6.11,12.08,11.18v-12.95h20.01v112.84h-20.01V241.87z
			 M609.26,241.55c4.34,0,8.04-0.77,11.1-2.31c3.06-1.54,5.54-3.62,7.46-6.24c1.91-2.62,3.31-5.66,4.2-9.14
			c0.89-3.48,1.33-7.13,1.33-10.95c0-3.77-0.43-7.32-1.29-10.67c-0.86-3.35-2.22-6.25-4.08-8.71c-1.86-2.46-4.25-4.41-7.18-5.85
			c-2.93-1.44-6.49-2.16-10.67-2.16c-4.39,0-8.1,0.79-11.1,2.35c-3.01,1.57-5.44,3.69-7.3,6.36c-1.86,2.67-3.19,5.75-4,9.26
			c-0.81,3.5-1.22,7.19-1.22,11.06c0,3.5,0.46,6.88,1.37,10.12c0.92,3.24,2.32,6.12,4.2,8.63c1.88,2.51,4.25,4.51,7.1,6
			S605.39,241.55,609.26,241.55z"/>
	</g>
	<g>
		<g>
			<path d="M368.67,104.43l36.97-53.42H372.4V40.47h50.63v5.25l-36.07,53.42h35.03v10.54h-53.32V104.43z"/>
			<path d="M426.39,84.48c0-3.97,0.76-7.59,2.29-10.85c1.53-3.26,3.58-6.05,6.17-8.37c2.58-2.32,5.58-4.11,9-5.39
				c3.42-1.28,7.04-1.91,10.85-1.91c3.84,0,7.42,0.64,10.73,1.91c3.31,1.28,6.18,3.07,8.63,5.39s4.36,5.09,5.74,8.32
				c1.39,3.23,2.08,6.78,2.08,10.66c0,3.97-0.73,7.58-2.17,10.83c-1.45,3.25-3.43,6.02-5.93,8.32c-2.51,2.3-5.44,4.08-8.82,5.34
				c-3.37,1.26-6.97,1.89-10.78,1.89c-3.84,0-7.46-0.64-10.85-1.91c-3.39-1.28-6.33-3.06-8.84-5.37c-2.51-2.3-4.48-5.05-5.93-8.25
				C427.11,91.89,426.39,88.35,426.39,84.48z M454.51,101.3c2.52,0,4.69-0.47,6.5-1.42c1.81-0.95,3.3-2.2,4.47-3.76
				c1.17-1.56,2.03-3.36,2.58-5.41c0.55-2.05,0.83-4.18,0.83-6.38c0-2.33-0.3-4.53-0.9-6.59c-0.6-2.06-1.51-3.88-2.72-5.44
				c-1.21-1.56-2.73-2.79-4.56-3.69c-1.83-0.9-3.99-1.35-6.48-1.35c-2.55,0-4.74,0.47-6.55,1.42c-1.81,0.95-3.29,2.21-4.42,3.81
				c-1.13,1.59-1.97,3.44-2.5,5.53c-0.54,2.1-0.8,4.31-0.8,6.64c0,2.24,0.3,4.37,0.9,6.38s1.5,3.78,2.72,5.29
				c1.21,1.51,2.73,2.72,4.54,3.62C449.92,100.86,452.05,101.3,454.51,101.3z"/>
			<path d="M490.72,36.12h12.1v30.96c0.82-1.58,1.83-2.94,3.05-4.09c1.21-1.15,2.55-2.1,4.02-2.84c1.46-0.74,3.04-1.29,4.73-1.65
				c1.69-0.36,3.4-0.54,5.13-0.54c3.03,0,5.67,0.5,7.94,1.51c2.27,1.01,4.16,2.4,5.67,4.18c1.51,1.78,2.65,3.89,3.4,6.33
				c0.76,2.44,1.13,5.11,1.13,8.01v31.67h-12.2V79.18c0-3.66-0.92-6.45-2.77-8.37s-4.53-2.88-8.06-2.88c-3.91,0-6.89,1.09-8.96,3.29
				s-3.1,5.1-3.1,8.72v29.73h-12.1V36.12z"/>
			<path d="M545.75,84.48c0-3.97,0.76-7.59,2.29-10.85c1.53-3.26,3.58-6.05,6.17-8.37c2.58-2.32,5.58-4.11,9-5.39
				c3.42-1.28,7.04-1.91,10.85-1.91c3.84,0,7.42,0.64,10.73,1.91c3.31,1.28,6.18,3.07,8.63,5.39s4.36,5.09,5.74,8.32
				c1.39,3.23,2.08,6.78,2.08,10.66c0,3.97-0.73,7.58-2.17,10.83c-1.45,3.25-3.43,6.02-5.93,8.32c-2.51,2.3-5.44,4.08-8.82,5.34
				c-3.37,1.26-6.97,1.89-10.78,1.89c-3.84,0-7.46-0.64-10.85-1.91c-3.39-1.28-6.33-3.06-8.84-5.37c-2.51-2.3-4.48-5.05-5.93-8.25
				C546.47,91.89,545.75,88.35,545.75,84.48z M573.88,101.3c2.52,0,4.69-0.47,6.5-1.42c1.81-0.95,3.3-2.2,4.47-3.76
				c1.17-1.56,2.03-3.36,2.58-5.41c0.55-2.05,0.83-4.18,0.83-6.38c0-2.33-0.3-4.53-0.9-6.59c-0.6-2.06-1.51-3.88-2.72-5.44
				c-1.21-1.56-2.73-2.79-4.56-3.69c-1.83-0.9-3.99-1.35-6.48-1.35c-2.55,0-4.74,0.47-6.55,1.42c-1.81,0.95-3.29,2.21-4.42,3.81
				c-1.13,1.59-1.97,3.44-2.5,5.53c-0.54,2.1-0.8,4.31-0.8,6.64c0,2.24,0.3,4.37,0.9,6.38s1.5,3.78,2.72,5.29
				c1.21,1.51,2.73,2.72,4.54,3.62C569.28,100.86,571.42,101.3,573.88,101.3z"/>
		</g>
	</g>
</g>
<g>
	<g>
		<g>
			<path class="st1" d="M147.95,287.94c-1.56,0-3.14-0.42-4.56-1.33c-3.96-2.52-5.1-7.79-2.58-11.72l39.37-61.48
				c1.56-2.44,4.25-3.91,7.17-3.91h85.53c7.82,0,14.16-6.34,14.16-14.16V38.95c0-7.82-6.34-14.16-14.16-14.16h-89.52
				c-4.7,0-8.5-3.79-8.5-8.5s3.79-8.5,8.5-8.5h89.52c17.19,0,31.15,13.96,31.15,31.15V195.3c0,17.19-13.96,31.15-31.15,31.15h-80.91
				l-36.84,57.58C153.5,286.55,150.75,287.94,147.95,287.94z M108.64,226.46H45.17c-17.19,0-31.15-13.96-31.15-31.15V38.95
				c0-17.19,13.96-31.15,31.15-31.15h80.46c4.7,0,8.5,3.79,8.5,8.5s-3.79,8.5-8.5,8.5H45.17c-7.82,0-14.16,6.34-14.16,14.16V195.3
				c0,7.82,6.34,14.16,14.16,14.16h63.47c4.7,0,8.5,3.79,8.5,8.5C117.13,222.66,113.34,226.46,108.64,226.46z"/>
		</g>
		<g>
			<path class="st1" d="M147.95,287.94c-1.56,0-3.14-0.42-4.56-1.33c-3.96-2.52-5.1-7.79-2.58-11.72l39.37-61.48
				c1.56-2.44,4.25-3.91,7.17-3.91h85.53c7.82,0,14.16-6.34,14.16-14.16V38.95c0-7.82-6.34-14.16-14.16-14.16h-89.52
				c-4.7,0-8.5-3.79-8.5-8.5s3.79-8.5,8.5-8.5h89.52c17.19,0,31.15,13.96,31.15,31.15V195.3c0,17.19-13.96,31.15-31.15,31.15h-80.91
				l-36.84,57.58C153.5,286.55,150.75,287.94,147.95,287.94z M108.64,226.46H45.17c-17.19,0-31.15-13.96-31.15-31.15V38.95
				c0-17.19,13.96-31.15,31.15-31.15h80.46c4.7,0,8.5,3.79,8.5,8.5s-3.79,8.5-8.5,8.5H45.17c-7.82,0-14.16,6.34-14.16,14.16V195.3
				c0,7.82,6.34,14.16,14.16,14.16h63.47c4.7,0,8.5,3.79,8.5,8.5C117.13,222.66,113.34,226.46,108.64,226.46z"/>
		</g>
	</g>
	<g>
		<g>
			<g>
				<circle class="st2" cx="221.29" cy="117.45" r="15.58"/>
			</g>
			<g>
				<ellipse class="st2" cx="158.99" cy="117.45" rx="15.58" ry="15.58"/>
			</g>
			<g>
				<circle class="st2" cx="96.69" cy="117.45" r="15.58"/>
			</g>
		</g>
		<g>
			<g>
				<circle class="st3" cx="221.29" cy="117.45" r="15.58"/>
			</g>
			<g>
				<ellipse class="st3" cx="158.99" cy="117.45" rx="15.58" ry="15.58"/>
			</g>
			<g>
				<circle class="st3" cx="96.69" cy="117.45" r="15.58"/>
			</g>
		</g>
	</g>
</g>
</svg>
