<?xml version="1.0" encoding="utf-8"?>
<!-- Generator: Adobe Illustrator 26.3.1, SVG Export Plug-In . SVG Version: 6.00 Build 0)  -->
<svg version="1.1" id="Layer_1" xmlns="http://www.w3.org/2000/svg" xmlns:xlink="http://www.w3.org/1999/xlink" x="0px" y="0px"
	 viewBox="0 0 722 296" style="enable-background:new 0 0 722 296;" xml:space="preserve">
<style type="text/css">
	.st0{fill:#FFFFFF;}
	.st1{fill:#226DB4;}
	.st2{fill:#009849;}
</style>
<g>
	<g>
		<path d="M360.68,140.8h75.65v17.34h-53.36v33.9h42.53v16.87h-42.53v46.77h-22.29V140.8z"/>
		<path d="M451.95,137.58l20.09-8.71v126.81h-20.09V137.58z"/>
		<path d="M486.39,213.85c0-6.59,1.27-12.59,3.81-18.01c2.54-5.41,5.95-10.04,10.24-13.89c4.29-3.84,9.27-6.83,14.95-8.95
			c5.68-2.12,11.68-3.18,18.01-3.18c6.38,0,12.32,1.06,17.81,3.18c5.49,2.12,10.27,5.1,14.32,8.95c4.05,3.85,7.23,8.45,9.53,13.81
			s3.45,11.26,3.45,17.7c0,6.59-1.2,12.58-3.61,17.97c-2.41,5.39-5.69,9.99-9.85,13.81c-4.16,3.82-9.04,6.78-14.63,8.87
			c-5.6,2.09-11.56,3.14-17.89,3.14c-6.38,0-12.39-1.06-18.01-3.18c-5.62-2.12-10.51-5.09-14.67-8.91
			c-4.16-3.82-7.44-8.38-9.85-13.69C487.6,226.16,486.39,220.29,486.39,213.85z M533.09,241.79c4.19,0,7.78-0.78,10.79-2.35
			c3.01-1.57,5.48-3.65,7.42-6.24c1.93-2.59,3.36-5.58,4.28-8.99c0.92-3.4,1.37-6.93,1.37-10.59c0-3.87-0.5-7.52-1.49-10.95
			c-1-3.43-2.5-6.43-4.51-9.02c-2.01-2.59-4.54-4.63-7.57-6.12c-3.04-1.49-6.62-2.24-10.75-2.24c-4.24,0-7.86,0.79-10.87,2.35
			c-3.01,1.57-5.45,3.68-7.34,6.32c-1.88,2.64-3.27,5.7-4.16,9.18c-0.89,3.48-1.33,7.15-1.33,11.03c0,3.71,0.5,7.25,1.49,10.59
			c0.99,3.35,2.5,6.28,4.51,8.79c2.01,2.51,4.52,4.51,7.53,6C525.46,241.04,529.01,241.79,533.09,241.79z"/>
		<path d="M584.01,171.64h21.34l17.26,60.27l17.97-60.27h16.71l16.95,60.27l17.58-60.27h19.62l-26.92,84.04h-20.4l-15.85-56.11
			l-17.26,56.11h-20.56L584.01,171.64z"/>
	</g>
	<g>
		<g>
			<path d="M360.84,104.43l36.97-53.42h-33.23V40.47h50.63v5.25l-36.07,53.42h35.03v10.54h-53.32V104.43z"/>
			<path d="M418.56,84.48c0-3.97,0.76-7.59,2.29-10.85c1.53-3.26,3.58-6.05,6.17-8.37c2.58-2.32,5.58-4.11,9-5.39
				c3.42-1.28,7.04-1.91,10.85-1.91c3.84,0,7.42,0.64,10.73,1.91c3.31,1.28,6.18,3.07,8.63,5.39s4.36,5.09,5.74,8.32
				c1.39,3.23,2.08,6.78,2.08,10.66c0,3.97-0.73,7.58-2.17,10.83c-1.45,3.25-3.43,6.02-5.93,8.32c-2.51,2.3-5.44,4.08-8.82,5.34
				c-3.37,1.26-6.97,1.89-10.78,1.89c-3.84,0-7.46-0.64-10.85-1.91c-3.39-1.28-6.33-3.06-8.84-5.37c-2.51-2.3-4.48-5.05-5.93-8.25
				C419.29,91.89,418.56,88.35,418.56,84.48z M446.69,101.3c2.52,0,4.69-0.47,6.5-1.42c1.81-0.95,3.3-2.2,4.47-3.76
				c1.17-1.56,2.03-3.36,2.58-5.41c0.55-2.05,0.83-4.18,0.83-6.38c0-2.33-0.3-4.53-0.9-6.59c-0.6-2.06-1.51-3.88-2.72-5.44
				c-1.21-1.56-2.73-2.79-4.56-3.69c-1.83-0.9-3.99-1.35-6.48-1.35c-2.55,0-4.74,0.47-6.55,1.42c-1.81,0.95-3.29,2.21-4.42,3.81
				c-1.13,1.59-1.97,3.44-2.5,5.53c-0.54,2.1-0.8,4.31-0.8,6.64c0,2.24,0.3,4.37,0.9,6.38s1.5,3.78,2.72,5.29
				c1.21,1.51,2.73,2.72,4.54,3.62C442.09,100.86,444.23,101.3,446.69,101.3z"/>
			<path d="M482.9,36.12H495v30.96c0.82-1.58,1.83-2.94,3.05-4.09c1.21-1.15,2.55-2.1,4.02-2.84c1.46-0.74,3.04-1.29,4.73-1.65
				c1.69-0.36,3.4-0.54,5.13-0.54c3.03,0,5.67,0.5,7.94,1.51c2.27,1.01,4.16,2.4,5.67,4.18c1.51,1.78,2.65,3.89,3.4,6.33
				c0.76,2.44,1.13,5.11,1.13,8.01v31.67h-12.2V79.18c0-3.66-0.92-6.45-2.77-8.37s-4.53-2.88-8.06-2.88c-3.91,0-6.89,1.09-8.96,3.29
				s-3.1,5.1-3.1,8.72v29.73h-12.1V36.12z"/>
			<path d="M537.92,84.48c0-3.97,0.76-7.59,2.29-10.85c1.53-3.26,3.58-6.05,6.17-8.37c2.58-2.32,5.58-4.11,9-5.39
				c3.42-1.28,7.04-1.91,10.85-1.91c3.84,0,7.42,0.64,10.73,1.91c3.31,1.28,6.18,3.07,8.63,5.39s4.36,5.09,5.74,8.32
				c1.39,3.23,2.08,6.78,2.08,10.66c0,3.97-0.73,7.58-2.17,10.83c-1.45,3.25-3.43,6.02-5.93,8.32c-2.51,2.3-5.44,4.08-8.82,5.34
				c-3.37,1.26-6.97,1.89-10.78,1.89c-3.84,0-7.46-0.64-10.85-1.91c-3.39-1.28-6.33-3.06-8.84-5.37c-2.51-2.3-4.48-5.05-5.93-8.25
				C538.65,91.89,537.92,88.35,537.92,84.48z M566.05,101.3c2.52,0,4.69-0.47,6.5-1.42c1.81-0.95,3.3-2.2,4.47-3.76
				c1.17-1.56,2.03-3.36,2.58-5.41c0.55-2.05,0.83-4.18,0.83-6.38c0-2.33-0.3-4.53-0.9-6.59c-0.6-2.06-1.51-3.88-2.72-5.44
				c-1.21-1.56-2.73-2.79-4.56-3.69c-1.83-0.9-3.99-1.35-6.48-1.35c-2.55,0-4.74,0.47-6.55,1.42c-1.81,0.95-3.29,2.21-4.42,3.81
				c-1.13,1.59-1.97,3.44-2.5,5.53c-0.54,2.1-0.8,4.31-0.8,6.64c0,2.24,0.3,4.37,0.9,6.38s1.5,3.78,2.72,5.29
				c1.21,1.51,2.73,2.72,4.54,3.62C561.46,100.86,563.59,101.3,566.05,101.3z"/>
		</g>
	</g>
</g>
<g>
	<g>
		<path class="st1" d="M66,245.27c-2.94,0-5.79-1.52-7.37-4.25L7.38,152.25c-1.52-2.63-1.52-5.87,0-8.5l68.25-118.2
			c1.52-2.63,4.32-4.25,7.36-4.25h136.5c4.01,0,7.51,2.79,8.35,6.72c0.83,3.92-1.16,7.87-4.81,9.5
			c-0.51,0.24-12.16,5.89-25.27,20.08c-7.82,8.46-14.62,18.27-20.24,29.16c-5.61,10.88-10.04,22.87-13.21,35.77l23.44-0.02
			c0,0,0,0,0.01,0c4.69,0,8.49,3.8,8.5,8.49c0,4.69-3.8,8.5-8.49,8.5l-33.98,0.02c0,0,0,0-0.01,0c-2.53,0-4.93-1.13-6.54-3.08
			s-2.28-4.52-1.81-7c3.53-18.63,9.36-35.82,17.33-51.11c6.42-12.32,14.24-23.43,23.24-33.02c2.42-2.58,4.81-4.92,7.11-7.03H87.89
			L24.55,148l48.81,84.53c2.35,4.06,0.95,9.26-3.11,11.61C68.91,244.91,67.45,245.27,66,245.27z"/>
	</g>
	<g>
		<path class="st2" d="M219.49,274.7H82.99c-4.01,0-7.51-2.79-8.35-6.72c-0.83-3.92,1.16-7.87,4.81-9.5
			c0.48-0.23,12.14-5.88,25.27-20.08c7.81-8.46,14.62-18.27,20.24-29.15c5.61-10.88,10.04-22.87,13.22-35.76h-23.44
			c-4.69,0-8.5-3.8-8.5-8.5c0-4.69,3.8-8.5,8.5-8.5h33.98c2.53,0,4.93,1.13,6.54,3.08c1.61,1.95,2.28,4.52,1.8,7
			c-3.53,18.62-9.36,35.81-17.33,51.09c-6.42,12.32-14.24,23.43-23.24,33.02c-2.42,2.58-4.8,4.92-7.1,7.02h105.19L277.93,148
			l-48.76-84.46c-2.34-4.06-0.95-9.26,3.11-11.61c4.06-2.35,9.26-0.95,11.61,3.11l51.22,88.7c1.52,2.63,1.52,5.87,0,8.5
			l-68.25,118.2C225.33,273.08,222.53,274.7,219.49,274.7z"/>
	</g>
</g>
</svg>
